<svg xmlns="http://www.w3.org/2000/svg" xmlns:xlink="http://www.w3.org/1999/xlink" viewBox="0 0 27.31 29.5"><defs><style>.a{fill:#fff;}.a,.c{fill-rule:evenodd;}.b{mask:url(#a);}.c{fill:#9b9b9b;}</style><mask id="a" x="0" y="0" width="27.31" height="29.5" maskUnits="userSpaceOnUse"><g transform="translate(0 -0.67)"><polygon class="a" points="0 0.67 27.32 0.67 27.32 30.17 0 30.17 0 0.67"/></g></mask></defs><g class="b"><path class="c" d="M13.66.67,11.27,5.12c-.27.48-.75.44-1.24.17L8.3,4.39l1.29,6.84c.27,1.24-.6,1.24-1,.7l-3-3.37-.49,1.71a.59.59,0,0,1-.68.41L.57,9.88l1,3.64c.22.81.39,1.14-.21,1.35L0,15.51l6.56,5.33a.86.86,0,0,1,.3.89l-.58,1.89c2.26-.26,4.29-.65,6.55-.89.2,0,.53.3.53.53l-.3,6.91h1.1L14,23.28c0-.23.3-.58.5-.55,2.26.24,4.28.63,6.54.89l-.57-1.89a.84.84,0,0,1,.29-.89l6.56-5.33L26,14.87c-.6-.21-.43-.54-.22-1.35l1-3.64-3.81.8a.6.6,0,0,1-.68-.41l-.49-1.71-3,3.37c-.43.54-1.3.54-1-.7L19,4.39l-1.73.9c-.48.27-1,.31-1.24-.17" transform="translate(0 -0.67)"/></g></svg>