<svg xmlns="http://www.w3.org/2000/svg" xmlns:xlink="http://www.w3.org/1999/xlink" viewBox="0 0 231.67 53.67"><defs><style>.a{fill:#fff;}.a,.b{fill-rule:evenodd;}.b{fill:#0dc5a0;}.c{mask:url(#a);}</style><mask id="a" x="0" y="0" width="231.67" height="53.67" maskUnits="userSpaceOnUse"><g transform="translate(0 -0.82)"><polygon class="a" points="0 0.82 231.67 0.82 231.67 54.49 0 54.49 0 0.82"/></g></mask></defs><path class="b" d="M27.65,22.36a.86.86,0,0,0-1-.95H22.07a.85.85,0,0,0-.95.95V33.23a.86.86,0,0,0,.95,1h4.62a.86.86,0,0,0,1-1v-3H24V26.59h7.73V34a3.8,3.8,0,0,1-4,4H21.07a3.8,3.8,0,0,1-4-4V21.58a3.79,3.79,0,0,1,4-4H27.7a3.8,3.8,0,0,1,4,4v2.63h-4Z" transform="translate(0 -0.82)"/><path class="b" d="M46.68,22.47a.85.85,0,0,0-1-.95H40.49v5.12h5.24a.85.85,0,0,0,1-.95ZM47,37.88,43.74,30.4H40.49v7.48h-4V17.71H46.74a3.79,3.79,0,0,1,4,4v4.73A3.75,3.75,0,0,1,48,30.23l3.36,7.65Z" transform="translate(0 -0.82)"/><path class="b" d="M61.07,29.53h4.31l-2.13-7.39ZM58.6,37.88H54.43l6.5-20.17h4.7l6.5,20.17H67.79l-1.32-4.54H60Z" transform="translate(0 -0.82)"/><polygon class="b" points="91.86 16.89 91.86 37.05 87.52 37.05 80.1 23.3 80.1 37.05 76.33 37.05 76.33 16.89 80.66 16.89 88.08 30.64 88.08 16.89 91.86 16.89"/><polygon class="b" points="105.47 20.64 105.47 37.05 101.44 37.05 101.44 20.64 96.18 20.64 96.18 16.89 110.73 16.89 110.73 20.64 105.47 20.64"/><path class="b" d="M133.24,34.12a.85.85,0,0,0,.95-.95V30.26c0-.84-.5-.9-1.28-.9h-5v4.76ZM133,25.78c.73,0,.95-.17.95-1v-2.4a.86.86,0,0,0-.95-1h-5.15v4.32Zm1-8.07a3.79,3.79,0,0,1,4,4v2.85a3.29,3.29,0,0,1-1.76,3,3.24,3.24,0,0,1,2,3V33.9a3.79,3.79,0,0,1-4,4H123.83V17.71Z" transform="translate(0 -0.82)"/><path class="b" d="M157.2,34a3.8,3.8,0,0,1-4,4h-6.44a3.79,3.79,0,0,1-4-4V17.71h4V33.23a.85.85,0,0,0,.95,1h4.42a.85.85,0,0,0,.95-1V17.71h4Z" transform="translate(0 -0.82)"/><path class="b" d="M172.35,22.47a.85.85,0,0,0-.95-.95h-5.24v5.12h5.24a.85.85,0,0,0,.95-.95Zm.31,15.41-3.25-7.48h-3.25v7.48h-4V17.71h10.28a3.79,3.79,0,0,1,4,4v4.73a3.75,3.75,0,0,1-2.74,3.81L177,37.88Z" transform="translate(0 -0.82)"/><polygon class="b" points="185.49 31.9 185.49 37.05 181.51 37.05 181.51 16.89 185.49 16.89 185.49 26.35 192.46 16.89 197.19 16.89 191.01 24.84 197.5 37.05 192.97 37.05 188.32 28.29 185.49 31.9"/><polygon class="b" points="214.87 16.89 214.87 20.7 205.71 20.7 205.71 24.84 213.13 24.84 213.13 28.65 205.71 28.65 205.71 33.24 214.87 33.24 214.87 37.05 201.68 37.05 201.68 16.89 214.87 16.89"/><g class="c"><path class="b" d="M220,.82H11.64A11.66,11.66,0,0,0,0,12.47V42.84A11.66,11.66,0,0,0,11.64,54.49H220a11.67,11.67,0,0,0,11.65-11.65V12.47A11.67,11.67,0,0,0,220,.82m0,4a7.61,7.61,0,0,1,7.61,7.61V42.84A7.61,7.61,0,0,1,220,50.46H11.64A7.62,7.62,0,0,1,4,42.84V12.47a7.61,7.61,0,0,1,7.61-7.61H220" transform="translate(0 -0.82)"/></g></svg>